<svg xmlns="http://www.w3.org/2000/svg" width="30" height="30" fill="none" viewBox="0 0 30 30">
    <path fill="#fff" d="M15 11.864c-1.695 0-3.05 1.356-3.05 3.051s1.355 3.051 3.05 3.051c1.695 0 3.05-1.356 3.05-3.05 0-1.611-1.355-3.052-3.05-3.052z"/>
    <path fill="#fff" d="M22.118 9.577c-.17-.424-.339-.763-.678-1.017-.339-.34-.593-.509-1.017-.678-.339-.085-.847-.254-1.695-.34-.932-.084-1.271-.084-3.729-.084-2.457 0-2.712 0-3.728.085-.933 0-1.356.17-1.695.339-.424.17-.763.339-1.017.678-.34.339-.509.593-.678 1.017-.085.339-.254.847-.34 1.695-.084.932-.084 1.27-.084 3.728s0 2.712.085 3.73c0 .931.17 1.355.339 1.694.17.424.339.763.678 1.017.339.339.593.509 1.017.678.339.085.847.254 1.695.339.932.085 1.27.085 3.728.085s2.712 0 3.73-.085c.931 0 1.355-.17 1.694-.339.424-.17.763-.339 1.017-.678.34-.339.509-.593.678-1.017.085-.339.254-.847.339-1.695.085-.932.085-1.271.085-3.729 0-2.457 0-2.711-.085-3.728-.085-.933-.17-1.441-.339-1.695zM14.999 19.66c-2.627 0-4.745-2.118-4.745-4.745 0-2.627 2.118-4.746 4.745-4.746 2.627 0 4.746 2.119 4.746 4.746-.085 2.627-2.119 4.745-4.746 4.745zm4.916-8.474c-.594 0-1.102-.509-1.102-1.102 0-.593.508-1.102 1.102-1.102.593 0 1.101.509 1.101 1.102 0 .593-.508 1.102-1.101 1.102z"/>
    <path fill="#fff" d="M15 0C6.695 0 0 6.695 0 15s6.695 15 15 15 15-6.695 15-15S23.305 0 15 0zm9.068 18.729c-.085 1.017-.17 1.61-.424 2.203-.254.593-.508 1.102-1.017 1.61-.508.509-1.017.848-1.61 1.017-.593.255-1.271.424-2.203.424-1.017.085-1.272.085-3.814.085-2.458 0-2.797 0-3.814-.085s-1.61-.17-2.203-.424c-.593-.254-1.102-.508-1.61-1.017-.509-.508-.848-1.017-1.017-1.61-.254-.593-.424-1.186-.509-2.203-.084-1.017-.084-1.271-.084-3.814 0-2.542 0-2.796.084-3.813.085-.933.255-1.61.424-2.119.254-.593.509-1.102 1.017-1.61.509-.509 1.017-.848 1.61-1.017.594-.254 1.271-.424 2.204-.424 1.017-.085 1.27-.085 3.813-.085 2.458 0 2.797 0 3.814.085s1.61.17 2.203.424c.593.254 1.102.508 1.61 1.017.509.508.848 1.017 1.017 1.61.255.593.424 1.271.424 2.203.085 1.017.085 1.272.085 3.814s.084 2.797 0 3.729z"/>
</svg>