<svg width="31px" height="31px" viewBox="0 0 31 31" version="1.1" xmlns="http://www.w3.org/2000/svg" xmlns:xlink="http://www.w3.org/1999/xlink">
    <title>Glyphs/Search</title>
    <desc>Created with Sketch.</desc>
    <g id="Symbols" stroke="none" stroke-width="1" fill="none" fill-rule="evenodd">
        <g id="@1920/naglowki/tvp-dwu-elementowy" transform="translate(-1787.000000, -24.000000)" fill="#fff">
            <g id="Group-14" transform="translate(1606.000000, 0.000000)">
                <g id="icons/Search" transform="translate(181.000000, 24.000000)">
                    <path d="M29.8762927,27.3349037 L21.543684,18.9990342 C23.037316,16.9618682 23.8374488,14.4989831 23.8262927,11.9729472 C23.7977934,5.37915536 18.4646014,0.0382053038 11.8708579,0.000121125709 C8.71538002,-0.0141555934 5.68525225,1.23415715 3.45550138,3.46697057 C1.22575052,5.699784 -0.0184020187,8.7316223 0.000205761347,11.8870776 C0.0287051324,18.4814698 5.36238374,23.8229065 11.9567275,23.8609907 C14.493054,23.8719834 16.9649373,23.0625112 19.0034666,21.553382 L19.0121623,21.5468603 L27.3371623,29.8762081 C27.7872685,30.3484113 28.4579575,30.5395481 29.0893686,30.3755618 C29.7207797,30.2115756 30.2137,29.7182333 30.3771458,29.0866821 C30.5405916,28.4551308 30.348881,27.7846057 29.8762927,27.3349037 L29.8762927,27.3349037 Z M11.9480318,21.4740342 C6.67284503,21.4436885 2.40597152,17.1709966 2.38281446,11.8957733 C2.36857661,9.37173595 3.36398053,6.94675243 5.14744537,5.16063362 C6.93091021,3.37451481 9.35441091,2.37550608 11.8784666,2.38599069 C17.1536535,2.41633631 21.420527,6.68902828 21.443684,11.9642516 C21.4579219,14.4882889 20.4625179,16.9132724 18.6790531,18.6993912 C16.8955883,20.48551 14.4720876,21.4845188 11.9480318,21.4740342 Z" id="Search"/>
                </g>
            </g>
        </g>
    </g>
</svg>