<svg width="95" height="95" xmlns="http://www.w3.org/2000/svg" fill="none">
 <defs>
  <clipPath id="clip0">
   <path id="svg_1" d="m0,0l260,0l0,55l-260,0l0,-55z" fill="#fff"/>
  </clipPath>
 </defs>
 <g>
  <title>Layer 1</title>
  <path id="svg_3" d="m41.183,71.076c-2.112,-0.84 -4.738,0.248 -6.051,2.1c-1.846,2.576 -5.138,5.973 -10.561,6.163c-6.108,0.21 -9.209,-3.97 -9.952,-5.61c-3.234,-7.233 4.072,-15.248 13.491,-13.302c3.349,0.687 5.956,0.668 7.631,-1.622c1.294,-1.775 0.97,-5.553 -3.711,-6.737c-16.117,-4.084 -33.413,9.79 -27.02,25.268c3.368,8.148 13.015,11.507 20.703,10.82c7.44,-0.668 14.842,-4.752 17.544,-10.095c1.636,-3.225 0.38,-6.012 -2.074,-6.985z" fill="#FF0946"/>
  <path id="svg_4" d="m73.328,28.042c-3.596,-0.458 -7.25,-0.076 -10.618,1.107l1.865,-10.668c0.419,-2.366 -1.484,-4.58 -4.224,-4.943c-2.74,-0.362 -5.309,1.28 -5.728,3.646l-6.793,38.893l0,0.019c-0.418,2.366 1.484,4.58 4.224,4.943c1.922,0.248 3.749,-0.478 4.815,-1.737c8.277,6.279 20.892,5.649 28.409,-1.546c11.055,-10.592 4.11,-27.634 -11.95,-29.714zm-3.711,27.195c-6.526,-0.82 -9.989,-5.61 -9.038,-10.935c1.732,-9.6 15.603,-10.649 19.827,-2.52c3.482,6.68 -2.74,14.485 -10.789,13.455z" fill="#FFB900"/>
  <path id="svg_5" d="m46.737,31.389l-3.387,-26.107c-0.305,-2.366 -2.797,-4.007 -5.556,-3.645c-2.379,0.305 -4.187,2.004 -4.434,3.989c-3.844,-1.928 -8.334,-2.672 -12.825,-2.08c-14.518,1.908 -22.51,16.183 -15.432,27.06c3.939,6.05 11.76,9.523 20.056,8.436c4.357,-0.573 8.563,-2.367 11.893,-5.325c0.78,1.794 2.93,2.94 5.27,2.634c2.74,-0.363 4.719,-2.596 4.415,-4.962zm-22.606,-1.069c-5.879,0.745 -11.169,-2.71 -11.835,-7.767c-0.666,-5.019 3.71,-9.924 9.419,-10.496c3.844,-0.382 7.059,0.668 9.305,2.863c5.613,5.438 1.617,14.293 -6.889,15.4z" fill="#00B828"/>
 </g>
</svg>