<svg xmlns="http://www.w3.org/2000/svg" fill="none" height="70" width="95" viewBox="128 0 135 55"><g clip-path="url(#clip0)"><path fill="#FF0946" d="M257.183 30.076c-2.112-.84-4.738.248-6.051 2.1-1.846 2.576-5.138 5.973-10.561 6.163-6.108.21-9.209-3.97-9.952-5.61-3.234-7.233 4.072-15.248 13.491-13.302 3.349.687 5.956.668 7.631-1.622 1.294-1.775.97-5.553-3.711-6.737-16.117-4.084-33.413 9.79-27.02 25.268 3.368 8.148 13.015 11.507 20.703 10.82 7.44-.668 14.842-4.752 17.544-10.095 1.636-3.225.38-6.012-2.074-6.985z"></path> <path fill="#FFB900" d="M200.328 17.042c-3.596-.458-7.25-.076-10.618 1.107l1.865-10.668c.419-2.366-1.484-4.58-4.224-4.943-2.74-.362-5.309 1.28-5.728 3.646l-6.793 38.893v.019c-.418 2.366 1.484 4.58 4.224 4.943 1.922.248 3.749-.478 4.815-1.737 8.277 6.279 20.892 5.649 28.409-1.546 11.055-10.592 4.11-27.634-11.95-29.714zm-3.711 27.195c-6.526-.82-9.989-5.61-9.038-10.935 1.732-9.6 15.603-10.649 19.827-2.52 3.482 6.68-2.74 14.485-10.789 13.455z"></path> <path fill="#00B828" d="M172.737 39.389l-3.387-26.107c-.305-2.366-2.797-4.007-5.556-3.645-2.379.305-4.187 2.004-4.434 3.989-3.844-1.928-8.334-2.672-12.825-2.08-14.518 1.908-22.51 16.183-15.432 27.06 3.939 6.05 11.76 9.523 20.056 8.436 4.357-.573 8.563-2.367 11.893-5.325.78 1.794 2.93 2.94 5.27 2.634 2.74-.363 4.719-2.596 4.415-4.962zm-22.606-1.069c-5.879.745-11.169-2.71-11.835-7.767-.666-5.019 3.71-9.924 9.419-10.496 3.844-.382 7.059.668 9.305 2.863 5.613 5.438 1.617 14.293-6.889 15.4z"></path> <path fill="#00ACE5" fill-rule="evenodd" d="M0 0h114.568v55H0V0z" clip-rule="evenodd"></path></g> <defs><clipPath id="clip0"><path fill="#fff" d="M0 0H260V55H0z"></path></clipPath></defs></svg>