<svg xmlns="http://www.w3.org/2000/svg" fill="none" width="72" height="35" viewBox="12 0 90 55"><g clip-path="url(#clip0)"><path fill="#fff" fill-rule="evenodd" d="M44.449 10.439h25.688v33.32H44.449V10.44zm27.552 0H97.69v33.32H72.001V10.44zm5.557 5.477v22.71h4.661v-6.928l1.009.038c6.26 0 9.343-4.007 9.343-7.996 0-3.912-2.988-7.805-8.905-7.805h-6.108v-.02zm4.642 4.389h1.675c2.664.038 3.977.935 4.167 3.55-.171 2.71-1.713 3.568-4.395 3.626H82.2v-7.176zM57.293 39.313L46.656 15.648h5.176l5.29 11.966.19.706.19-.725 5.252-11.946h5.175L57.293 39.313zM38.626 20.305v-4.39h-17.81v4.39h6.431v18.302h4.948V20.305h6.431zm-21.75-9.866h25.689v33.32H16.877V10.44zm-1.883-1.66h84.561V45.4h-84.56V8.779z" clip-rule="evenodd"></path></g> <defs><clipPath id="clip0"><path fill="#fff" d="M0 0H260V55H0z"></path></clipPath></defs></svg>